name ./resultDataOpenSim/trcMotMarkerGrf/sub10/grf-13-08.mot
datacolumns 19
datarows 12
range 0.52800000 0.57200000
endheader

                time	     ground_force_vx	     ground_force_vy	     ground_force_vz	     ground_force_px	     ground_force_py	     ground_force_pz	   l_ground_force_vx	   l_ground_force_vy	   l_ground_force_vz	   l_ground_force_px	   l_ground_force_py	   l_ground_force_pz	     ground_torque_x	     ground_torque_y	     ground_torque_z	   l_ground_torque_x	   l_ground_torque_y	   l_ground_torque_z	
          0.52800000	         28.83184456	        461.30305901	         -1.10094284	         -0.76033791	          0.00000000	         -0.00492616	          0.00000000	          0.00000000	          0.00000000	          0.00000000	          0.00000000	          0.00000000	          0.00000000	          2.51013949	          0.00000000	          0.00000000	          0.00000000	          0.00000000	
          0.53200000	         30.84324500	        464.42817084	         -2.56043502	         -0.75973095	          0.00000000	         -0.00469587	          0.00000000	          0.00000000	          0.00000000	          0.00000000	          0.00000000	          0.00000000	          0.00000000	          2.47866264	          0.00000000	          0.00000000	          0.00000000	          0.00000000	
          0.53600000	         33.28906436	        468.15195556	         -4.27299983	         -0.75910518	          0.00000000	         -0.00442175	          0.00000000	          0.00000000	          0.00000000	          0.00000000	          0.00000000	          0.00000000	          0.00000000	          2.43480750	          0.00000000	          0.00000000	          0.00000000	          0.00000000	
          0.54000000	         36.28778424	        472.50622232	         -6.03561827	         -0.75846577	          0.00000000	         -0.00411245	          0.00000000	          0.00000000	          0.00000000	          0.00000000	          0.00000000	          0.00000000	          0.00000000	          2.40141713	          0.00000000	          0.00000000	          0.00000000	          0.00000000	
          0.54400000	         39.79437132	        477.50153358	         -7.66049538	         -0.75779791	          0.00000000	         -0.00377993	          0.00000000	          0.00000000	          0.00000000	          0.00000000	          0.00000000	          0.00000000	          0.00000000	          2.39790405	          0.00000000	          0.00000000	          0.00000000	          0.00000000	
          0.54800000	         43.60944142	        483.14783941	         -9.02073166	         -0.75708105	          0.00000000	         -0.00343618	          0.00000000	          0.00000000	          0.00000000	          0.00000000	          0.00000000	          0.00000000	          0.00000000	          2.43669768	          0.00000000	          0.00000000	          0.00000000	          0.00000000	
          0.55200000	         47.43605728	        489.44145621	        -10.08059814	         -0.75628965	          0.00000000	         -0.00309180	          0.00000000	          0.00000000	          0.00000000	          0.00000000	          0.00000000	          0.00000000	          0.00000000	          2.52099433	          0.00000000	          0.00000000	          0.00000000	          0.00000000	
          0.55600000	         50.96454233	        496.34680070	        -10.90303776	         -0.75538575	          0.00000000	         -0.00275316	          0.00000000	          0.00000000	          0.00000000	          0.00000000	          0.00000000	          0.00000000	          0.00000000	          2.64415357	          0.00000000	          0.00000000	          0.00000000	          0.00000000	
          0.56000000	         53.95658204	        503.79948077	        -11.63501813	         -0.75432665	          0.00000000	         -0.00241727	          0.00000000	          0.00000000	          0.00000000	          0.00000000	          0.00000000	          0.00000000	          0.00000000	          2.79099385	          0.00000000	          0.00000000	          0.00000000	          0.00000000	
          0.56400000	         56.30389451	        511.71653604	        -12.47499961	         -0.75307988	          0.00000000	         -0.00207096	          0.00000000	          0.00000000	          0.00000000	          0.00000000	          0.00000000	          0.00000000	          0.00000000	          2.94093620	          0.00000000	          0.00000000	          0.00000000	          0.00000000	
          0.56800000	         58.04763813	        520.00503853	        -13.62883409	         -0.75162460	          0.00000000	         -0.00169689	          0.00000000	          0.00000000	          0.00000000	          0.00000000	          0.00000000	          0.00000000	          0.00000000	          3.07243172	          0.00000000	          0.00000000	          0.00000000	          0.00000000	
          0.57200000	         59.35246210	        528.58526186	        -15.26197625	         -0.74995164	          0.00000000	         -0.00128086	          0.00000000	          0.00000000	          0.00000000	          0.00000000	          0.00000000	          0.00000000	          0.00000000	          3.16762536	          0.00000000	          0.00000000	          0.00000000	          0.00000000	
